<svg width="20" height="20" viewBox="0 0 20 20" fill="none" xmlns="http://www.w3.org/2000/svg">
<g clip-path="url(#clip0)">
<path fill-rule="evenodd" clip-rule="evenodd" d="M19.9394 8.88973C19.9077 8.60859 19.5799 8.39733 19.2965 8.39733C18.3801 8.39733 17.5669 7.85924 17.2258 7.02706C16.8774 6.17472 17.1021 5.18069 17.7851 4.5542C18 4.35767 18.0262 4.02868 17.8458 3.80016C17.3768 3.20454 16.8437 2.66653 16.2616 2.20024C16.0337 2.01733 15.6993 2.04278 15.5016 2.26164C14.9056 2.92177 13.8349 3.16711 13.0076 2.8219C12.1466 2.45973 11.6037 1.58729 11.6568 0.650787C11.6743 0.356627 11.4593 0.100865 11.166 0.0667084C10.4191 -0.0196868 9.66554 -0.0223657 8.91634 0.0607552C8.62642 0.0927534 8.41144 0.342488 8.42119 0.632928C8.45378 1.56021 7.9043 2.41739 7.05189 2.76654C6.23444 3.10044 5.17128 2.85718 4.57641 2.20292C4.37981 1.98742 4.05083 1.96093 3.82178 2.13945C3.22244 2.60967 2.67736 3.14814 2.20401 3.73884C2.01939 3.96848 2.04655 4.30134 2.26369 4.49891C2.95969 5.1292 3.18442 6.13186 2.82284 6.99402C2.47763 7.816 1.6241 8.34576 0.64696 8.34576C0.32988 8.33557 0.104033 8.54839 0.0693556 8.83667C-0.0186023 9.58796 -0.0196441 10.3535 0.0650395 11.1109C0.0964424 11.3932 0.43421 11.6026 0.72078 11.6026C1.59158 11.5803 2.42762 12.1195 2.77834 12.9729C3.12794 13.8253 2.90321 14.8187 2.21919 15.4457C2.00525 15.6422 1.97809 15.9707 2.15839 16.1992C2.62304 16.7911 3.15622 17.3296 3.74037 17.7997C3.96949 17.9844 4.30287 17.9583 4.50148 17.7395C5.09977 17.0777 6.17037 16.8328 6.99444 17.1787C7.85757 17.5397 8.4005 18.4121 8.34737 19.3491C8.33003 19.6434 8.54605 19.8996 8.83813 19.9333C9.22025 19.9779 9.60467 20.0001 9.99014 20.0001C10.356 20.0001 10.722 19.98 11.0879 19.9393C11.3779 19.9073 11.5927 19.6576 11.583 19.3666C11.5494 18.4399 12.0999 17.5827 12.9512 17.2341C13.7741 16.898 14.8328 17.144 15.4278 17.7976C15.6255 18.0126 15.9522 18.0386 16.1825 17.8607C16.7807 17.3916 17.3246 16.8536 17.8002 16.2612C17.9848 16.0321 17.9587 15.6987 17.7405 15.5012C17.0445 14.8709 16.8186 13.8681 17.1802 13.0066C17.5201 12.1955 18.342 11.651 19.2259 11.651L19.3496 11.6542C19.6363 11.6774 19.9001 11.4566 19.9349 11.1639C20.023 10.412 20.024 9.64712 19.9394 8.88973ZM10.018 13.3568C8.17867 13.3568 6.68249 11.8607 6.68249 10.0213C6.68249 8.18198 8.17867 6.68572 10.018 6.68572C11.8573 6.68572 13.3535 8.18198 13.3535 10.0213C13.3535 11.8607 11.8573 13.3568 10.018 13.3568Z" fill="#E1E1E1"/>
</g>
<defs>
<clipPath id="clip0">
<rect width="20" height="20" fill="white"/>
</clipPath>
</defs>
</svg>
