<svg width="25" height="25" viewBox="0 0 25 25" fill="none" xmlns="http://www.w3.org/2000/svg">
<g clip-path="url(#clip0)">
<path fill-rule="evenodd" clip-rule="evenodd" d="M24.9252 11.1123C24.8857 10.7609 24.476 10.4968 24.1216 10.4968C22.9761 10.4968 21.9596 9.82417 21.5333 8.78395C21.0978 7.71852 21.3786 6.47599 22.2324 5.69287C22.5011 5.44721 22.5337 5.03597 22.3083 4.75032C21.7221 4.0058 21.0557 3.33328 20.3281 2.75043C20.0432 2.52179 19.6252 2.5536 19.3781 2.82717C18.633 3.65233 17.2947 3.95901 16.2605 3.5275C15.1843 3.07478 14.5056 1.98424 14.572 0.813606C14.5939 0.445906 14.3252 0.126203 13.9586 0.0835076C13.0249 -0.0244864 12.083 -0.0278351 11.1465 0.0760661C10.7841 0.116064 10.5153 0.428232 10.5275 0.791282C10.5683 1.95038 9.88142 3.02185 8.81589 3.4583C7.79409 3.87567 6.46514 3.57159 5.72156 2.75378C5.4758 2.4844 5.06457 2.45128 4.77826 2.67443C4.02909 3.26221 3.34774 3.93529 2.75605 4.67367C2.52527 4.96072 2.55922 5.37679 2.83065 5.62376C3.70065 6.41162 3.98156 7.66494 3.52959 8.74265C3.09807 9.77013 2.03116 10.4323 0.809738 10.4323C0.413388 10.4196 0.131078 10.6856 0.0877321 11.046C-0.0222153 11.9851 -0.0235175 12.942 0.082337 13.8887C0.121591 14.2416 0.5438 14.5034 0.902012 14.5034C1.99051 14.4755 3.03557 15.1495 3.47396 16.2163C3.91096 17.2817 3.63005 18.5235 2.77502 19.3073C2.5076 19.5529 2.47364 19.9635 2.69903 20.2492C3.27983 20.9889 3.94631 21.6621 4.6765 22.2498C4.9629 22.4806 5.37962 22.448 5.62789 22.1745C6.37575 21.3472 7.714 21.0411 8.74408 21.4735C9.823 21.9248 10.5017 23.0152 10.4352 24.1865C10.4136 24.5544 10.6836 24.8747 11.0487 24.9167C11.5263 24.9724 12.0069 25.0003 12.4887 25.0003C12.9461 25.0003 13.4035 24.9751 13.8609 24.9243C14.2234 24.8843 14.4919 24.5721 14.4798 24.2084C14.4378 23.0499 15.1259 21.9785 16.19 21.5428C17.2187 21.1226 18.542 21.4301 19.2857 22.2471C19.5329 22.5159 19.9412 22.5484 20.2291 22.326C20.9769 21.7396 21.6568 21.0671 22.2513 20.3267C22.482 20.0403 22.4495 19.6235 22.1766 19.3767C21.3066 18.5888 21.0243 17.3353 21.4763 16.2583C21.9012 15.2445 22.9285 14.5638 24.0335 14.5638L24.1881 14.5678C24.5465 14.5969 24.8762 14.3209 24.9196 13.955C25.0298 13.0151 25.0311 12.059 24.9252 11.1123ZM12.5236 16.6962C10.2244 16.6962 8.35415 14.8259 8.35415 12.5267C8.35415 10.2276 10.2244 8.35728 12.5236 8.35728C14.8227 8.35728 16.6929 10.2276 16.6929 12.5267C16.6929 14.8259 14.8227 16.6962 12.5236 16.6962Z" fill="white"/>
</g>
<defs>
<clipPath id="clip0">
<rect width="25" height="25" fill="white"/>
</clipPath>
</defs>
</svg>
